<svg width="36" height="36" viewBox="0 0 36 36" fill="none" xmlns="http://www.w3.org/2000/svg">
<rect width="36" height="36" rx="18" fill="white"/>
<g clip-path="url(#clip0_772_100)">
<path d="M12.1654 26.9851V18.7194L9.60191 16.3742L7.30322 15.0728V25.5264C7.30322 26.3335 7.95718 26.9851 8.76187 26.9851H12.1654Z" fill="#4285F4"/>
<path d="M23.8347 26.9851H27.2382C28.0454 26.9851 28.6969 26.3311 28.6969 25.5264V15.0728L26.0933 16.5635L23.8347 18.7194V26.9851Z" fill="#34A853"/>
<path d="M12.1655 18.7193L11.8167 15.4896L12.1655 12.3984L18.0001 16.7744L23.8347 12.3984L24.2249 15.3227L23.8347 18.7193L18.0001 23.0952L12.1655 18.7193Z" fill="#EA4335"/>
<path d="M23.8347 12.3983V18.7192L28.6969 15.0725V13.1277C28.6969 11.3238 26.6378 10.2954 25.1961 11.3773L23.8347 12.3983Z" fill="#FBBC04"/>
<path d="M7.30322 15.0725L9.53942 16.7497L12.1654 18.7192V12.3983L10.804 11.3773C9.35992 10.2954 7.30322 11.3238 7.30322 13.1277V15.0725Z" fill="#C5221F"/>
</g>
<defs>
<clipPath id="clip0_772_100">
<rect width="21.3936" height="16.1287" fill="white" transform="translate(7.30322 10.9355)"/>
</clipPath>
</defs>
</svg>
