<svg width="36" height="36" viewBox="0 0 36 36" fill="none" xmlns="http://www.w3.org/2000/svg">
<rect width="36" height="36" rx="18" fill="#0066C8"/>
<g clip-path="url(#clip0_744_62)">
<path fill-rule="evenodd" clip-rule="evenodd" d="M9 10.1273C9 8.9523 9.95252 8 11.1273 8C12.3021 8 13.2544 8.9523 13.2544 10.1273C13.2544 11.3024 12.3021 12.2547 11.1273 12.2547C9.95252 12.2547 9 11.3021 9 10.1273Z" fill="white"/>
<path d="M12.9819 14.0454H9.27271V26.0455H12.9819V14.0454Z" fill="white"/>
<path fill-rule="evenodd" clip-rule="evenodd" d="M26.545 16.4191C26.2917 15.8703 26.0163 15.3456 25.5344 14.957C25.0656 14.5781 24.5174 14.2237 23.9367 14.0454C23.2781 13.8434 22.7896 13.803 22.1029 13.8322C20.7397 13.8889 19.2303 14.6705 18.4635 15.7904V14.0454H15.0544V26.0454H18.6731V19.6054C18.6731 19.5373 18.6902 18.4493 19.491 17.7271C20.4846 16.832 23.3727 16.7813 23.3727 19.5181L23.3636 26.0457H27.0003V18.2998C27.0003 17.6575 26.8124 16.9976 26.5452 16.4193L26.545 16.4191Z" fill="white"/>
</g>
<defs>
<clipPath id="clip0_744_62">
<rect width="18" height="18.0458" fill="white" transform="translate(9 8)"/>
</clipPath>
</defs>
</svg>
