<svg width="36" height="36" viewBox="0 0 36 36" fill="none" xmlns="http://www.w3.org/2000/svg">
<rect width="36" height="36" rx="18" fill="#DB5800"/>
<path d="M28 18C28 23.5228 23.5228 28 18 28M28 18C28 12.4772 23.5228 8 18 8M28 18C28 16.3431 23.5228 15 18 15C12.4772 15 8 16.3431 8 18M28 18C28 19.6569 23.5228 21 18 21C12.4772 21 8 19.6569 8 18M18 28C12.4772 28 8 23.5228 8 18M18 28C20.2091 28 22 23.5228 22 18C22 12.4772 20.2091 8 18 8M18 28C15.7909 28 14 23.5228 14 18C14 12.4772 15.7909 8 18 8M8 18C8 12.4772 12.4772 8 18 8" stroke="white" stroke-width="1.5"/>
</svg>
