<svg width="36" height="36" viewBox="0 0 36 36" fill="none" xmlns="http://www.w3.org/2000/svg">
<rect width="36" height="36" rx="18" fill="#FF0000"/>
<path d="M30.3286 11.8174C30.032 10.7158 29.1635 9.84733 28.062 9.55077C26.0495 9 17.9999 9 17.9999 9C17.9999 9 9.95022 9 7.9378 9.52958C6.85745 9.82615 5.96775 10.7158 5.67118 11.8174C5.1416 13.8298 5.1416 18.0029 5.1416 18.0029C5.1416 18.0029 5.1416 22.1972 5.67118 24.1884C5.96775 25.29 6.83627 26.1585 7.9378 26.4551C9.9714 27.0058 17.9999 27.0058 17.9999 27.0058C17.9999 27.0058 26.0495 27.0058 28.062 26.4762C29.1635 26.1797 30.032 25.3112 30.3286 24.2096C30.8582 22.1972 30.8582 18.0241 30.8582 18.0241C30.8582 18.0241 30.8793 13.8298 30.3286 11.8174Z" fill="white"/>
<path d="M15.4368 21.8582L22.1307 18.0028L15.4368 14.1475V21.8582Z" fill="#FF0000"/>
</svg>
